<mxGraphModel dx="1434" dy="780" grid="1" gridSize="10" guides="1" tooltips="1" connect="1" arrows="1" fold="1" page="1" pageScale="1" pageWidth="827" pageHeight="1169" math="0" shadow="0">
  <root>
    <mxCell id="0" />
    <mxCell id="1" parent="0" />
    <mxCell id="TWZeQBOpbCpTZb6lZ8-Y-5" value="personbase" style="swimlane;fontStyle=1;align=center;verticalAlign=top;childLayout=stackLayout;horizontal=1;startSize=26;horizontalStack=0;resizeParent=1;resizeParentMax=0;resizeLast=0;collapsible=1;marginBottom=0;whiteSpace=wrap;html=1;" parent="1" vertex="1">
      <mxGeometry x="20" y="200" width="250" height="170" as="geometry" />
    </mxCell>
    <mxCell id="TWZeQBOpbCpTZb6lZ8-Y-6" value="&lt;font style=&quot;font-size: 13px;&quot;&gt;id:Integer&lt;/font&gt;&lt;div&gt;&lt;font style=&quot;font-size: 13px;&quot;&gt;git:String&lt;br&gt;&lt;br&gt;&lt;/font&gt;&lt;/div&gt;" style="text;strokeColor=none;fillColor=none;align=left;verticalAlign=top;spacingLeft=4;spacingRight=4;overflow=hidden;rotatable=0;points=[[0,0.5],[1,0.5]];portConstraint=eastwest;whiteSpace=wrap;html=1;" parent="TWZeQBOpbCpTZb6lZ8-Y-5" vertex="1">
      <mxGeometry y="26" width="250" height="54" as="geometry" />
    </mxCell>
    <mxCell id="TWZeQBOpbCpTZb6lZ8-Y-7" value="" style="line;strokeWidth=1;fillColor=none;align=left;verticalAlign=middle;spacingTop=-1;spacingLeft=3;spacingRight=3;rotatable=0;labelPosition=right;points=[];portConstraint=eastwest;strokeColor=inherit;" parent="TWZeQBOpbCpTZb6lZ8-Y-5" vertex="1">
      <mxGeometry y="80" width="250" height="8" as="geometry" />
    </mxCell>
    <mxCell id="TWZeQBOpbCpTZb6lZ8-Y-8" value="&lt;div&gt;&lt;span style=&quot;text-wrap: nowrap;&quot;&gt;+initialize(id:int,git:str)&lt;/span&gt;&lt;span style=&quot;font-size: 13px;&quot;&gt;&lt;br&gt;&lt;/span&gt;&lt;/div&gt;&lt;div&gt;&lt;span style=&quot;text-wrap: nowrap;&quot;&gt;-set_attribute(attr_name:symbol,value:any)&lt;/span&gt;&lt;span style=&quot;text-wrap: nowrap;&quot;&gt;&lt;br&gt;&lt;/span&gt;&lt;/div&gt;&lt;div&gt;&lt;span style=&quot;text-wrap: nowrap;&quot;&gt;+to_s&lt;/span&gt;&lt;span style=&quot;text-wrap: nowrap;&quot;&gt;&lt;br&gt;&lt;/span&gt;&lt;/div&gt;&lt;div&gt;&lt;span style=&quot;text-wrap: nowrap;&quot;&gt;-id = (id)&lt;/span&gt;&lt;/div&gt;" style="text;strokeColor=none;fillColor=none;align=left;verticalAlign=top;spacingLeft=4;spacingRight=4;overflow=hidden;rotatable=0;points=[[0,0.5],[1,0.5]];portConstraint=eastwest;whiteSpace=wrap;html=1;" parent="TWZeQBOpbCpTZb6lZ8-Y-5" vertex="1">
      <mxGeometry y="88" width="250" height="82" as="geometry" />
    </mxCell>
    <mxCell id="TWZeQBOpbCpTZb6lZ8-Y-9" value="student" style="swimlane;fontStyle=1;align=center;verticalAlign=top;childLayout=stackLayout;horizontal=1;startSize=26;horizontalStack=0;resizeParent=1;resizeParentMax=0;resizeLast=0;collapsible=1;marginBottom=0;whiteSpace=wrap;html=1;" parent="1" vertex="1">
      <mxGeometry x="330" y="361" width="500" height="220" as="geometry" />
    </mxCell>
    <mxCell id="TWZeQBOpbCpTZb6lZ8-Y-10" value="&lt;span style=&quot;text-wrap: nowrap;&quot;&gt;first_name: string&lt;/span&gt;&lt;div&gt;&lt;span style=&quot;text-wrap: nowrap;&quot;&gt;surname: string&lt;/span&gt;&lt;span style=&quot;text-wrap: nowrap;&quot;&gt;&lt;br&gt;&lt;/span&gt;&lt;/div&gt;&lt;div&gt;&lt;span style=&quot;text-wrap: nowrap;&quot;&gt;last_name: string&lt;/span&gt;&lt;span style=&quot;text-wrap: nowrap;&quot;&gt;&lt;br&gt;&lt;/span&gt;&lt;/div&gt;&lt;div&gt;&lt;span style=&quot;text-wrap: nowrap;&quot;&gt;email: string&lt;/span&gt;&lt;span style=&quot;text-wrap: nowrap;&quot;&gt;&lt;br&gt;&lt;/span&gt;&lt;/div&gt;&lt;div&gt;&lt;span style=&quot;text-wrap: nowrap;&quot;&gt;phone: string&lt;/span&gt;&lt;span style=&quot;text-wrap: nowrap;&quot;&gt;&lt;br&gt;&lt;/span&gt;&lt;/div&gt;&lt;div&gt;&lt;span style=&quot;text-wrap: nowrap;&quot;&gt;tg: string&lt;/span&gt;&lt;span style=&quot;text-wrap: nowrap;&quot;&gt;&lt;br&gt;&lt;/span&gt;&lt;/div&gt;" style="text;strokeColor=none;fillColor=none;align=left;verticalAlign=top;spacingLeft=4;spacingRight=4;overflow=hidden;rotatable=0;points=[[0,0.5],[1,0.5]];portConstraint=eastwest;whiteSpace=wrap;html=1;" parent="TWZeQBOpbCpTZb6lZ8-Y-9" vertex="1">
      <mxGeometry y="26" width="500" height="104" as="geometry" />
    </mxCell>
    <mxCell id="TWZeQBOpbCpTZb6lZ8-Y-11" value="" style="line;strokeWidth=1;fillColor=none;align=left;verticalAlign=middle;spacingTop=-1;spacingLeft=3;spacingRight=3;rotatable=0;labelPosition=right;points=[];portConstraint=eastwest;strokeColor=inherit;" parent="TWZeQBOpbCpTZb6lZ8-Y-9" vertex="1">
      <mxGeometry y="130" width="500" height="8" as="geometry" />
    </mxCell>
    <mxCell id="TWZeQBOpbCpTZb6lZ8-Y-12" value="&lt;span style=&quot;text-wrap: nowrap;&quot;&gt;+initialize(first_name:str, surname:str, last_name:str,phone:str, tg: str, git: str, email: str,id:int)&lt;/span&gt;&lt;div&gt;&lt;span style=&quot;text-wrap: nowrap;&quot;&gt;+set_contacts(phone: string, telegram: string, email: string)&lt;/span&gt;&lt;span style=&quot;text-wrap: nowrap;&quot;&gt;&lt;br&gt;&lt;/span&gt;&lt;/div&gt;&lt;div&gt;+initials&lt;div style=&quot;padding: 0px; margin: 0px;&quot;&gt;+get_info&lt;div style=&quot;padding: 0px; margin: 0px;&quot;&gt;+get_contact&lt;div style=&quot;padding: 0px; margin: 0px;&quot;&gt;&lt;br style=&quot;padding: 0px; margin: 0px; text-wrap: nowrap;&quot;&gt;&lt;/div&gt;&lt;/div&gt;&lt;/div&gt;&lt;/div&gt;" style="text;strokeColor=none;fillColor=none;align=left;verticalAlign=top;spacingLeft=4;spacingRight=4;overflow=hidden;rotatable=0;points=[[0,0.5],[1,0.5]];portConstraint=eastwest;whiteSpace=wrap;html=1;" parent="TWZeQBOpbCpTZb6lZ8-Y-9" vertex="1">
      <mxGeometry y="138" width="500" height="82" as="geometry" />
    </mxCell>
    <mxCell id="TWZeQBOpbCpTZb6lZ8-Y-21" value="" style="endArrow=classic;html=1;rounded=0;entryX=0.994;entryY=0.672;entryDx=0;entryDy=0;entryPerimeter=0;exitX=0;exitY=0.5;exitDx=0;exitDy=0;" parent="1" source="TWZeQBOpbCpTZb6lZ8-Y-10" target="TWZeQBOpbCpTZb6lZ8-Y-8" edge="1">
      <mxGeometry width="50" height="50" relative="1" as="geometry">
        <mxPoint x="390" y="430" as="sourcePoint" />
        <mxPoint x="440" y="380" as="targetPoint" />
      </mxGeometry>
    </mxCell>
    <mxCell id="TWZeQBOpbCpTZb6lZ8-Y-22" value="" style="endArrow=classic;html=1;rounded=0;exitX=0;exitY=0.5;exitDx=0;exitDy=0;" parent="1" target="TWZeQBOpbCpTZb6lZ8-Y-6" edge="1">
      <mxGeometry width="50" height="50" relative="1" as="geometry">
        <mxPoint x="580" y="188" as="sourcePoint" />
        <mxPoint x="440" y="380" as="targetPoint" />
      </mxGeometry>
    </mxCell>
    <mxCell id="_e97sW0daDQBwRf8x1Wt-1" value="&lt;p style=&quot;margin:0px;margin-top:4px;text-align:center;&quot;&gt;&lt;b&gt;student_short&lt;/b&gt;&lt;/p&gt;&lt;hr size=&quot;1&quot; style=&quot;border-style:solid;&quot;&gt;&lt;p style=&quot;margin:0px;margin-left:4px;&quot;&gt;&lt;span style=&quot;text-wrap: nowrap;&quot;&gt;FIO: string&lt;/span&gt;&lt;br&gt;&lt;/p&gt;&lt;p style=&quot;margin:0px;margin-left:4px;&quot;&gt;&lt;span style=&quot;text-wrap: nowrap;&quot;&gt;contact: string&lt;/span&gt;&lt;span style=&quot;text-wrap: nowrap;&quot;&gt;&lt;br&gt;&lt;/span&gt;&lt;/p&gt;&lt;hr size=&quot;1&quot; style=&quot;border-style:solid;&quot;&gt;&lt;p style=&quot;margin:0px;margin-left:4px;&quot;&gt;&lt;span style=&quot;text-wrap: nowrap;&quot;&gt;+initialize(student: Student, id: int, student_str: str)&lt;/span&gt;&lt;br&gt;&lt;/p&gt;&lt;p style=&quot;margin:0px;margin-left:4px;&quot;&gt;&lt;span style=&quot;text-wrap: nowrap;&quot;&gt;+short_setter(info: string)&lt;/span&gt;&lt;span style=&quot;text-wrap: nowrap;&quot;&gt;&lt;br&gt;&lt;/span&gt;&lt;/p&gt;" style="verticalAlign=top;align=left;overflow=fill;html=1;whiteSpace=wrap;" vertex="1" parent="1">
      <mxGeometry x="580" y="150" width="310" height="120" as="geometry" />
    </mxCell>
  </root>
</mxGraphModel>
